{
  "asset": {
    "version": "2.0",
    "generator": "FEL Art Mode (original CC0 geometry)"
  },
  "scene": 0,
  "scenes": [
    {
      "nodes": [
        0
      ]
    }
  ],
  "nodes": [
    {
      "mesh": 0,
      "name": "AuroraPrism"
    }
  ],
  "meshes": [
    {
      "name": "HexBipyramidPrism",
      "primitives": [
        {
          "attributes": {
            "POSITION": 1,
            "NORMAL": 2
          },
          "indices": 0,
          "material": 0
        }
      ]
    }
  ],
  "materials": [
    {
      "name": "OriginalPBR",
      "pbrMetallicRoughness": {
        "baseColorFactor": [
          0.6,
          0.2,
          1.0,
          1.0
        ],
        "metallicFactor": 0.2,
        "roughnessFactor": 0.45
      }
    }
  ],
  "accessors": [
    {
      "bufferView": 0,
      "componentType": 5123,
      "count": 36,
      "type": "SCALAR",
      "max": [
        35
      ],
      "min": [
        0
      ]
    },
    {
      "bufferView": 1,
      "componentType": 5126,
      "count": 36,
      "type": "VEC3",
      "max": [
        1.0,
        1.5,
        0.8660254037844387
      ],
      "min": [
        -1.0,
        -1.5,
        -0.8660254037844386
      ]
    },
    {
      "bufferView": 2,
      "componentType": 5126,
      "count": 36,
      "type": "VEC3",
      "max": [
        0.7500000000000001,
        0.5000000000000001,
        0.8660254037844387
      ],
      "min": [
        -0.7500000000000001,
        -0.5000000000000001,
        -0.8660254037844387
      ]
    }
  ],
  "bufferViews": [
    {
      "buffer": 0,
      "byteOffset": 0,
      "byteLength": 72,
      "target": 34963
    },
    {
      "buffer": 0,
      "byteOffset": 72,
      "byteLength": 432,
      "target": 34962
    },
    {
      "buffer": 0,
      "byteOffset": 504,
      "byteLength": 432,
      "target": 34962
    }
  ],
  "buffers": [
    {
      "byteLength": 936,
      "uri": "data:application/octet-stream;base64,"
    }
  ]
}